Chivo-Light Italic.ufo
<glyph name="quotedbl" format="1">
  <advance width="363"/>
  <unicode hex="0022"/>
  <outline>
    <contour>
      <point x="98" y="414" type="line"/>
      <point x="128" y="414" type="line"/>
      <point x="157" y="539" type="line"/>
      <point x="178" y="686" type="line"/>
      <point x="126" y="686" type="line"/>
      <point x="105" y="539" type="line"/>
    </contour>
    <contour>
      <point x="231" y="414" type="line"/>
      <point x="261" y="414" type="line"/>
      <point x="290" y="539" type="line"/>
      <point x="311" y="686" type="line"/>
      <point x="259" y="686" type="line"/>
      <point x="238" y="539" type="line"/>
    </contour>
  </outline>
</glyph>
<glyph name="ampersand" format="1">
  <advance width="661"/>
  <unicode hex="0026"/>
  <outline>
    <contour>
      <point x="427" y="688" type="line"/>
      <point x="404" y="693"/>
      <point x="378" y="696"/>
      <point x="350" y="696" type="curve" smooth="yes"/>
      <point x="230" y="696"/>
      <point x="116" y="625"/>
      <point x="116" y="494" type="curve" smooth="yes"/>
      <point x="116" y="420"/>
      <point x="156" y="386"/>
      <point x="209" y="356" type="curve"/>
      <point x="209" y="352" type="line"/>
      <point x="128" y="330"/>
      <point x="58" y="276"/>
      <point x="58" y="164" type="curve" smooth="yes"/>
      <point x="58" y="60"/>
      <point x="148" y="0"/>
      <point x="263" y="0" type="curve" smooth="yes"/>
      <point x="450" y="0" type="line"/>
      <point x="496" y="329" type="line"/>
      <point x="615" y="329" type="line"/>
      <point x="621" y="375" type="line"/>
      <point x="502" y="375" type="line"/>
      <point x="525" y="538" type="line"/>
      <point x="492" y="538" type="line"/>
      <point x="451" y="375" type="line"/>
      <point x="320" y="375" type="line" smooth="yes"/>
      <point x="238" y="375"/>
      <point x="170" y="415"/>
      <point x="170" y="500" type="curve" smooth="yes"/>
      <point x="170" y="601"/>
      <point x="257" y="648"/>
      <point x="344" y="648" type="curve" smooth="yes"/>
      <point x="372" y="648"/>
      <point x="397" y="645"/>
      <point x="420" y="638" type="curve"/>
    </contour>
    <contour>
      <point x="445" y="329" type="line"/>
      <point x="405" y="46" type="line"/>
      <point x="269" y="46" type="line" smooth="yes"/>
      <point x="176" y="46"/>
      <point x="110" y="90"/>
      <point x="110" y="169" type="curve" smooth="yes"/>
      <point x="110" y="285"/>
      <point x="209" y="329"/>
      <point x="309" y="329" type="curve" smooth="yes"/>
    </contour>
  </outline>
</glyph>
<glyph name="quotesingle" format="1">
  <advance width="209"/>
  <unicode hex="0027"/>
  <outline>
    <contour>
      <point x="98" y="414" type="line"/>
      <point x="128" y="414" type="line"/>
      <point x="157" y="539" type="line"/>
      <point x="178" y="686" type="line"/>
      <point x="126" y="686" type="line"/>
      <point x="105" y="539" type="line"/>
    </contour>
  </outline>
</glyph>
<glyph name="parenleft" format="1">
  <advance width="289"/>
  <unicode hex="0028"/>
  <outline>
    <contour>
      <point x="54" y="54"/>
      <point x="90" y="-63"/>
      <point x="159" y="-157" type="curve"/>
      <point x="188" y="-157" type="line"/>
      <point x="140" y="-65"/>
      <point x="105" y="49"/>
      <point x="105" y="173" type="curve" smooth="yes"/>
      <point x="105" y="365"/>
      <point x="197" y="548"/>
      <point x="307" y="686" type="curve"/>
      <point x="278" y="686" type="line"/>
      <point x="139" y="544"/>
      <point x="54" y="376"/>
      <point x="54" y="177" type="curve" smooth="yes"/>
    </contour>
  </outline>
</glyph>
<glyph name="parenright" format="1">
  <advance width="289"/>
  <unicode hex="0029"/>
  <outline>
    <contour>
      <point x="220" y="474"/>
      <point x="183" y="592"/>
      <point x="114" y="686" type="curve"/>
      <point x="85" y="686" type="line"/>
      <point x="133" y="594"/>
      <point x="168" y="478"/>
      <point x="168" y="353" type="curve" smooth="yes"/>
      <point x="168" y="163"/>
      <point x="74" y="-21"/>
      <point x="-33" y="-157" type="curve"/>
      <point x="-4" y="-157" type="line"/>
      <point x="134" y="-15"/>
      <point x="220" y="152"/>
      <point x="220" y="351" type="curve" smooth="yes"/>
    </contour>
  </outline>
</glyph>
<glyph name="hyphen" format="1">
  <advance width="390"/>
  <unicode hex="002D"/>
  <outline>
    <contour>
      <point x="60" y="237" type="line"/>
      <point x="312" y="237" type="line"/>
      <point x="321" y="299" type="line"/>
      <point x="68" y="299" type="line"/>
    </contour>
  </outline>
</glyph>
<glyph name="period" format="1">
  <advance width="238"/>
  <unicode hex="002E"/>
  <outline>
    <contour>
      <point x="29" y="0" type="line"/>
      <point x="94" y="0" type="line"/>
      <point x="103" y="69" type="line"/>
      <point x="38" y="69" type="line"/>
    </contour>
  </outline>
</glyph>
<glyph name="zero" format="1">
  <advance width="615"/>
  <unicode hex="0030"/>
  <outline>
    <contour>
      <point x="556" y="475" type="line" smooth="yes"/>
      <point x="558" y="488"/>
      <point x="559" y="500"/>
      <point x="559" y="512" type="curve" smooth="yes"/>
      <point x="559" y="625"/>
      <point x="481" y="696"/>
      <point x="366" y="696" type="curve" smooth="yes"/>
      <point x="229" y="696"/>
      <point x="133" y="609"/>
      <point x="114" y="475" type="curve" smooth="yes"/>
      <point x="77" y="211" type="line" smooth="yes"/>
      <point x="75" y="198"/>
      <point x="74" y="185"/>
      <point x="74" y="173" type="curve" smooth="yes"/>
      <point x="74" y="61"/>
      <point x="152" y="-10"/>
      <point x="267" y="-10" type="curve" smooth="yes"/>
      <point x="407" y="-10"/>
      <point x="500" y="77"/>
      <point x="519" y="211" type="curve" smooth="yes"/>
    </contour>
    <contour>
      <point x="464" y="205" type="line" smooth="yes"/>
      <point x="450" y="109"/>
      <point x="370" y="38"/>
      <point x="274" y="38" type="curve" smooth="yes"/>
      <point x="187" y="38"/>
      <point x="128" y="97"/>
      <point x="128" y="180" type="curve" smooth="yes"/>
      <point x="128" y="188"/>
      <point x="129" y="196"/>
      <point x="130" y="205" type="curve" smooth="yes"/>
      <point x="169" y="481" type="line" smooth="yes"/>
      <point x="182" y="577"/>
      <point x="262" y="648"/>
      <point x="359" y="648" type="curve" smooth="yes"/>
      <point x="446" y="648"/>
      <point x="505" y="589"/>
      <point x="505" y="506" type="curve" smooth="yes"/>
      <point x="505" y="498"/>
      <point x="504" y="490"/>
      <point x="503" y="481" type="curve" smooth="yes"/>
    </contour>
  </outline>
</glyph>
<glyph name="four" format="1">
  <advance width="615"/>
  <unicode hex="0034"/>
  <outline>
    <contour>
      <point x="386" y="235" type="line"/>
      <point x="97" y="235" type="line"/>
      <point x="166" y="301"/>
      <point x="315" y="521"/>
      <point x="396" y="696" type="curve"/>
      <point x="340" y="696" type="line"/>
      <point x="257" y="532"/>
      <point x="87" y="284"/>
      <point x="40" y="235" type="curve"/>
      <point x="33" y="187" type="line"/>
      <point x="379" y="187" type="line"/>
      <point x="353" y="0" type="line"/>
      <point x="409" y="0" type="line"/>
      <point x="435" y="187" type="line"/>
      <point x="517" y="187" type="line"/>
      <point x="524" y="235" type="line"/>
      <point x="442" y="235" type="line"/>
      <point x="489" y="573" type="line"/>
      <point x="470" y="573" type="line"/>
      <point x="458" y="550"/>
      <point x="435" y="512"/>
      <point x="422" y="492" type="curve"/>
    </contour>
  </outline>
</glyph>
<glyph name="nine" format="1">
  <advance width="615"/>
  <unicode hex="0039"/>
  <outline>
    <contour>
      <point x="457" y="205" type="line" smooth="yes"/>
      <point x="443" y="109"/>
      <point x="365" y="38"/>
      <point x="269" y="38" type="curve" smooth="yes"/>
      <point x="182" y="38"/>
      <point x="127" y="96"/>
      <point x="127" y="178" type="curve" smooth="yes"/>
      <point x="127" y="187"/>
      <point x="128" y="196"/>
      <point x="130" y="211" type="curve"/>
      <point x="78" y="211" type="line"/>
      <point x="76" y="197"/>
      <point x="75" y="184"/>
      <point x="75" y="171" type="curve" smooth="yes"/>
      <point x="75" y="60"/>
      <point x="148" y="-10"/>
      <point x="262" y="-10" type="curve" smooth="yes"/>
      <point x="397" y="-10"/>
      <point x="493" y="77"/>
      <point x="512" y="211" type="curve" smooth="yes"/>
      <point x="551" y="488"/>
      <point x="552" y="500"/>
      <point x="552" y="512" type="curve" smooth="yes"/>
      <point x="552" y="625"/>
      <point x="474" y="696"/>
      <point x="359" y="696" type="curve" smooth="yes"/>
      <point x="224" y="696"/>
      <point x="104" y="593"/>
      <point x="104" y="440" type="curve" smooth="yes"/>
      <point x="104" y="331"/>
      <point x="180" y="257"/>
      <point x="289" y="257" type="curve" smooth="yes"/>
      <point x="359" y="257"/>
      <point x="431" y="291"/>
      <point x="477" y="346" type="curve"/>
    </contour>
    <contour>
      <point x="217" y="305"/>
      <point x="159" y="363"/>
      <point x="159" y="445" type="curve" smooth="yes"/>
      <point x="159" y="560"/>
      <point x="243" y="648"/>
      <point x="352" y="648" type="curve" smooth="yes"/>
      <point x="439" y="648"/>
      <point x="498" y="589"/>
      <point x="498" y="506" type="curve" smooth="yes"/>
      <point x="498" y="397"/>
      <point x="411" y="305"/>
      <point x="304" y="305" type="curve" smooth="yes"/>
    </contour>
  </outline>
</glyph>
<glyph name="semicolon" format="1">
  <advance width="238"/>
  <unicode hex="003B"/>
  <outline>
    <contour>
      <point x="100" y="442" type="line"/>
      <point x="165" y="442" type="line"/>
      <point x="175" y="511" type="line"/>
      <point x="110" y="511" type="line"/>
    </contour>
    <contour>
      <point x="58" y="-101" type="line"/>
      <point x="104" y="11" type="line"/>
      <point x="112" y="69" type="line"/>
      <point x="47" y="69" type="line"/>
      <point x="38" y="0" type="line"/>
      <point x="62" y="0" type="line"/>
      <point x="62" y="0"/>
      <point x="25" y="-101"/>
      <point x="24" y="-101" type="curve"/>
    </contour>
  </outline>
</glyph>
<glyph name="D" format="1">
  <advance width="677"/>
  <unicode hex="0044"/>
  <outline>
    <contour>
      <point x="112" y="48" type="line"/>
      <point x="195" y="638" type="line"/>
      <point x="361" y="638" type="line" smooth="yes"/>
      <point x="468" y="638"/>
      <point x="541" y="592"/>
      <point x="541" y="441" type="curve" smooth="yes"/>
      <point x="541" y="418"/>
      <point x="539" y="393"/>
      <point x="529" y="322" type="curve" smooth="yes"/>
      <point x="498" y="104"/>
      <point x="395" y="48"/>
      <point x="278" y="48" type="curve" smooth="yes"/>
    </contour>
    <contour>
      <point x="271" y="0" type="line" smooth="yes"/>
      <point x="425" y="0"/>
      <point x="551" y="74"/>
      <point x="584" y="331" type="curve" smooth="yes"/>
      <point x="592" y="391"/>
      <point x="594" y="421"/>
      <point x="594" y="450" type="curve" smooth="yes"/>
      <point x="594" y="632"/>
      <point x="495" y="686"/>
      <point x="368" y="686" type="curve" smooth="yes"/>
      <point x="148" y="686" type="line"/>
      <point x="51" y="0" type="line"/>
    </contour>
    <contour>
      <point x="363" y="343" type="move" name="center"/>
    </contour>
    <contour>
      <point x="350" y="686" type="move" name="top"/>
    </contour>
  </outline>
</glyph>
<glyph name="L" format="1">
  <advance width="532"/>
  <unicode hex="004C"/>
  <outline>
    <contour>
      <point x="454" y="0" type="line"/>
      <point x="454" y="48" type="line"/>
      <point x="112" y="48" type="line"/>
      <point x="202" y="686" type="line"/>
      <point x="148" y="686" type="line"/>
      <point x="51" y="0" type="line"/>
    </contour>
    <contour>
      <point x="175" y="686" type="move" name="top"/>
    </contour>
    <contour>
      <point x="230" y="0" type="move" name="bottom"/>
    </contour>
    <contour>
      <point x="573" y="686" type="move" name="topright"/>
    </contour>
  </outline>
</glyph>
<glyph name="M" format="1">
  <advance width="938"/>
  <unicode hex="004D"/>
  <outline>
    <contour>
      <point x="762" y="0" type="line"/>
      <point x="859" y="686" type="line"/>
      <point x="774" y="686" type="line"/>
      <point x="418" y="70" type="line"/>
      <point x="414" y="70" type="line"/>
      <point x="234" y="686" type="line"/>
      <point x="148" y="686" type="line"/>
      <point x="51" y="0" type="line"/>
      <point x="99" y="0" type="line"/>
      <point x="187" y="625" type="line"/>
      <point x="192" y="625" type="line"/>
      <point x="377" y="0" type="line"/>
      <point x="428" y="0" type="line"/>
      <point x="791" y="625" type="line"/>
      <point x="796" y="625" type="line"/>
      <point x="708" y="0" type="line"/>
    </contour>
  </outline>
</glyph>
<glyph name="N" format="1">
  <advance width="694"/>
  <unicode hex="004E"/>
  <outline>
    <contour>
      <point x="530" y="0" type="line"/>
      <point x="627" y="686" type="line"/>
      <point x="579" y="686" type="line"/>
      <point x="497" y="103" type="line"/>
      <point x="493" y="103" type="line"/>
      <point x="194" y="686" type="line"/>
      <point x="148" y="686" type="line"/>
      <point x="51" y="0" type="line"/>
      <point x="99" y="0" type="line"/>
      <point x="181" y="583" type="line"/>
      <point x="185" y="583" type="line"/>
      <point x="482" y="0" type="line"/>
    </contour>
    <contour>
      <point x="378" y="686" type="move" name="top"/>
    </contour>
    <contour>
      <point x="311" y="0" type="move" name="bottom"/>
    </contour>
  </outline>
</glyph>
<glyph name="V" format="1">
  <advance width="602"/>
  <unicode hex="0056"/>
  <outline>
    <contour>
      <point x="263" y="86" type="line"/>
      <point x="258" y="86" type="line"/>
      <point x="118" y="686" type="line"/>
      <point x="59" y="686" type="line"/>
      <point x="222" y="0" type="line"/>
      <point x="270" y="0" type="line"/>
      <point x="626" y="686" type="line"/>
      <point x="573" y="686" type="line"/>
    </contour>
  </outline>
</glyph>
<glyph name="bracketleft" format="1">
  <advance width="294"/>
  <unicode hex="005B"/>
  <outline>
    <contour>
      <point x="163" y="-161" type="line"/>
      <point x="168" y="-123" type="line"/>
      <point x="80" y="-123" type="line"/>
      <point x="189" y="648" type="line"/>
      <point x="277" y="648" type="line"/>
      <point x="282" y="686" type="line"/>
      <point x="141" y="686" type="line"/>
      <point x="22" y="-161" type="line"/>
    </contour>
  </outline>
</glyph>
<glyph name="backslash" format="1">
  <advance width="593"/>
  <unicode hex="005C"/>
  <outline>
    <contour>
      <point x="423" y="0" type="line"/>
      <point x="128" y="686" type="line"/>
      <point x="68" y="686" type="line"/>
      <point x="363" y="0" type="line"/>
    </contour>
  </outline>
</glyph>
<glyph name="bracketright" format="1">
  <advance width="294"/>
  <unicode hex="005D"/>
  <outline>
    <contour>
      <point x="117" y="-161" type="line"/>
      <point x="236" y="686" type="line"/>
      <point x="95" y="686" type="line"/>
      <point x="90" y="648" type="line"/>
      <point x="178" y="648" type="line"/>
      <point x="69" y="-123" type="line"/>
      <point x="-19" y="-123" type="line"/>
      <point x="-24" y="-161" type="line"/>
    </contour>
  </outline>
</glyph>
<glyph name="underscore" format="1">
  <advance width="687"/>
  <unicode hex="005F"/>
  <outline>
    <contour>
      <point x="534" y="-122" type="line"/>
      <point x="543" y="-64" type="line"/>
      <point x="43" y="-64" type="line"/>
      <point x="35" y="-122" type="line"/>
    </contour>
  </outline>
</glyph>
<glyph name="grave" format="1">
  <advance width="333"/>
  <unicode hex="0060"/>
  <outline>
    <contour>
      <point x="217" y="575" type="line"/>
      <point x="142" y="720" type="line"/>
      <point x="77" y="720" type="line"/>
      <point x="76" y="717" type="line"/>
      <point x="167" y="575" type="line"/>
    </contour>
    <contour>
      <point x="187" y="511" type="move" name="_top"/>
    </contour>
  </outline>
</glyph>
<glyph name="b" format="1">
  <advance width="582"/>
  <unicode hex="0062"/>
  <outline>
    <contour>
      <point x="194" y="720" type="line"/>
      <point x="143" y="720" type="line"/>
      <point x="42" y="0" type="line"/>
      <point x="63" y="0" type="line"/>
      <point x="94" y="85" type="line"/>
      <point x="123" y="21"/>
      <point x="176" y="-10"/>
      <point x="254" y="-10" type="curve" smooth="yes"/>
      <point x="437" y="-10"/>
      <point x="501" y="190"/>
      <point x="501" y="324" type="curve" smooth="yes"/>
      <point x="501" y="452"/>
      <point x="428" y="521"/>
      <point x="329" y="521" type="curve" smooth="yes"/>
      <point x="257" y="521"/>
      <point x="194" y="490"/>
      <point x="154" y="440" type="curve"/>
    </contour>
    <contour>
      <point x="392" y="475"/>
      <point x="449" y="428"/>
      <point x="449" y="322" type="curve" smooth="yes"/>
      <point x="449" y="130"/>
      <point x="356" y="36"/>
      <point x="256" y="36" type="curve" smooth="yes"/>
      <point x="182" y="36"/>
      <point x="123" y="74"/>
      <point x="123" y="192" type="curve" smooth="yes"/>
      <point x="123" y="327"/>
      <point x="176" y="475"/>
      <point x="317" y="475" type="curve" smooth="yes"/>
    </contour>
  </outline>
</glyph>
<glyph name="j" format="1">
  <advance width="260"/>
  <unicode hex="006A"/>
  <outline>
    <contour>
      <point x="136" y="666" type="line"/>
      <point x="195" y="666" type="line"/>
      <point x="202" y="720" type="line"/>
      <point x="143" y="720" type="line"/>
    </contour>
    <contour>
      <point x="36" y="-73" type="line" smooth="yes"/>
      <point x="28" y="-132"/>
      <point x="-4" y="-140"/>
      <point x="-30" y="-140" type="curve" smooth="yes"/>
      <point x="-45" y="-140"/>
      <point x="-74" y="-131"/>
      <point x="-89" y="-124" type="curve"/>
      <point x="-96" y="-169" type="line"/>
      <point x="-80" y="-179"/>
      <point x="-55" y="-186"/>
      <point x="-30" y="-186" type="curve" smooth="yes"/>
      <point x="29" y="-186"/>
      <point x="75" y="-152"/>
      <point x="86" y="-75" type="curve" smooth="yes"/>
      <point x="169" y="511" type="line"/>
      <point x="118" y="511" type="line"/>
    </contour>
  </outline>
</glyph>
<glyph name="k" format="1">
  <advance width="534"/>
  <unicode hex="006B"/>
  <outline>
    <contour>
      <point x="397" y="0" type="line"/>
      <point x="463" y="0" type="line"/>
      <point x="269" y="270" type="line"/>
      <point x="518" y="511" type="line"/>
      <point x="455" y="511" type="line"/>
      <point x="119" y="186" type="line"/>
      <point x="194" y="720" type="line"/>
      <point x="143" y="720" type="line"/>
      <point x="42" y="0" type="line"/>
      <point x="93" y="0" type="line"/>
      <point x="111" y="127" type="line"/>
      <point x="230" y="232" type="line"/>
    </contour>
    <contour>
      <point x="231" y="0" type="move" name="bottom"/>
    </contour>
  </outline>
</glyph>
<glyph name="l" format="1">
  <advance width="268"/>
  <unicode hex="006C"/>
  <outline>
    <contour>
      <point x="97" y="0" type="line"/>
      <point x="198" y="720" type="line"/>
      <point x="147" y="720" type="line"/>
      <point x="46" y="0" type="line"/>
    </contour>
    <contour>
      <point x="170" y="686" type="move" name="top"/>
    </contour>
    <contour>
      <point x="72" y="0" type="move" name="bottom"/>
    </contour>
    <contour>
      <point x="296" y="686" type="move" name="topright"/>
    </contour>
  </outline>
</glyph>
<glyph name="p" format="1">
  <advance width="583"/>
  <unicode hex="0070"/>
  <outline>
    <contour>
      <point x="148" y="511" type="line"/>
      <point x="114" y="511" type="line"/>
      <point x="17" y="-181" type="line"/>
      <point x="68" y="-181" type="line"/>
      <point x="104" y="71" type="line"/>
      <point x="130" y="21"/>
      <point x="183" y="-10"/>
      <point x="255" y="-10" type="curve" smooth="yes"/>
      <point x="432" y="-10"/>
      <point x="500" y="166"/>
      <point x="500" y="321" type="curve" smooth="yes"/>
      <point x="500" y="461"/>
      <point x="427" y="521"/>
      <point x="330" y="521" type="curve" smooth="yes"/>
      <point x="255" y="521"/>
      <point x="195" y="493"/>
      <point x="149" y="434" type="curve"/>
    </contour>
    <contour>
      <point x="392" y="475"/>
      <point x="449" y="434"/>
      <point x="449" y="317" type="curve" smooth="yes"/>
      <point x="449" y="186"/>
      <point x="398" y="36"/>
      <point x="257" y="36" type="curve" smooth="yes"/>
      <point x="181" y="36"/>
      <point x="123" y="83"/>
      <point x="123" y="190" type="curve" smooth="yes"/>
      <point x="123" y="316"/>
      <point x="172" y="475"/>
      <point x="318" y="475" type="curve" smooth="yes"/>
    </contour>
  </outline>
</glyph>
<glyph name="v" format="1">
  <advance width="512"/>
  <unicode hex="0076"/>
  <outline>
    <contour>
      <point x="501" y="511" type="line"/>
      <point x="451" y="511" type="line"/>
      <point x="215" y="74" type="line"/>
      <point x="211" y="74" type="line"/>
      <point x="98" y="511" type="line"/>
      <point x="43" y="511" type="line"/>
      <point x="178" y="0" type="line"/>
      <point x="223" y="0" type="line"/>
    </contour>
  </outline>
</glyph>
<glyph name="w" format="1">
  <advance width="809"/>
  <unicode hex="0077"/>
  <outline>
    <contour>
      <point x="412" y="446" type="line"/>
      <point x="416" y="446" type="line"/>
      <point x="508" y="0" type="line"/>
      <point x="548" y="0" type="line"/>
      <point x="797" y="511" type="line"/>
      <point x="748" y="511" type="line"/>
      <point x="545" y="93" type="line"/>
      <point x="541" y="93" type="line"/>
      <point x="455" y="511" type="line"/>
      <point x="396" y="511" type="line"/>
      <point x="193" y="93" type="line"/>
      <point x="189" y="93" type="line"/>
      <point x="103" y="511" type="line"/>
      <point x="50" y="511" type="line"/>
      <point x="156" y="0" type="line"/>
      <point x="196" y="0" type="line"/>
    </contour>
    <contour>
      <point x="426" y="511" type="move" name="top"/>
    </contour>
  </outline>
</glyph>
<glyph name="x" format="1">
  <advance width="517"/>
  <unicode hex="0078"/>
  <outline>
    <contour>
      <point x="414" y="0" type="line"/>
      <point x="260" y="262" type="line"/>
      <point x="476" y="511" type="line"/>
      <point x="418" y="511" type="line"/>
      <point x="242" y="303" type="line"/>
      <point x="238" y="303" type="line"/>
      <point x="119" y="511" type="line"/>
      <point x="55" y="511" type="line"/>
      <point x="202" y="262" type="line"/>
      <point x="-23" y="0" type="line"/>
      <point x="34" y="0" type="line"/>
      <point x="223" y="221" type="line"/>
      <point x="227" y="221" type="line"/>
      <point x="351" y="0" type="line"/>
    </contour>
  </outline>
</glyph>
<glyph name="bar" format="1">
  <advance width="290"/>
  <unicode hex="007C"/>
  <outline>
    <contour>
      <point x="154" y="-199" type="line"/>
      <point x="283" y="720" type="line"/>
      <point x="231" y="720" type="line"/>
      <point x="102" y="-199" type="line"/>
    </contour>
  </outline>
</glyph>
<glyph name="asciitilde" format="1">
  <advance width="691"/>
  <unicode hex="007E"/>
  <outline>
    <contour>
      <point x="638" y="374" type="line"/>
      <point x="638" y="374"/>
      <point x="559" y="296"/>
      <point x="464" y="296" type="curve" smooth="yes"/>
      <point x="376" y="296"/>
      <point x="320" y="362"/>
      <point x="235" y="362" type="curve" smooth="yes"/>
      <point x="140" y="362"/>
      <point x="61" y="284"/>
      <point x="61" y="284" type="curve"/>
      <point x="53" y="224" type="line"/>
      <point x="53" y="224"/>
      <point x="132" y="302"/>
      <point x="227" y="302" type="curve" smooth="yes"/>
      <point x="315" y="302"/>
      <point x="371" y="236"/>
      <point x="456" y="236" type="curve" smooth="yes"/>
      <point x="551" y="236"/>
      <point x="630" y="314"/>
      <point x="630" y="314" type="curve"/>
    </contour>
  </outline>
</glyph>
<glyph name="cent" format="1">
  <advance width="527"/>
  <unicode hex="00A2"/>
  <outline>
    <contour>
      <point x="428" y="285" type="line"/>
      <point x="413" y="174"/>
      <point x="338" y="124"/>
      <point x="257" y="124" type="curve" smooth="yes"/>
      <point x="177" y="124"/>
      <point x="119" y="175"/>
      <point x="119" y="280" type="curve" smooth="yes"/>
      <point x="119" y="411"/>
      <point x="172" y="563"/>
      <point x="317" y="563" type="curve" smooth="yes"/>
      <point x="390" y="563"/>
      <point x="447" y="521"/>
      <point x="447" y="434" type="curve" smooth="yes"/>
      <point x="447" y="424"/>
      <point x="446" y="413"/>
      <point x="445" y="402" type="curve"/>
      <point x="495" y="402" type="line"/>
      <point x="497" y="415"/>
      <point x="497" y="427"/>
      <point x="497" y="439" type="curve" smooth="yes"/>
      <point x="497" y="542"/>
      <point x="433" y="602"/>
      <point x="341" y="608" type="curve"/>
      <point x="363" y="693" type="line"/>
      <point x="310" y="693" type="line"/>
      <point x="310" y="609" type="line"/>
      <point x="149" y="606"/>
      <point x="68" y="436"/>
      <point x="68" y="279" type="curve" smooth="yes"/>
      <point x="68" y="156"/>
      <point x="132" y="84"/>
      <point x="235" y="78" type="curve"/>
      <point x="214" y="-6" type="line"/>
      <point x="266" y="-6" type="line"/>
      <point x="266" y="78" type="line"/>
      <point x="371" y="85"/>
      <point x="461" y="158"/>
      <point x="478" y="285" type="curve"/>
    </contour>
  </outline>
</glyph>
<glyph name="currency" format="1">
  <advance width="624"/>
  <unicode hex="00A4"/>
  <outline>
    <contour>
      <point x="562" y="586" type="line"/>
      <point x="498" y="530" type="line"/>
      <point x="461" y="566"/>
      <point x="409" y="584"/>
      <point x="353" y="584" type="curve" smooth="yes"/>
      <point x="297" y="584"/>
      <point x="241" y="566"/>
      <point x="194" y="530" type="curve"/>
      <point x="146" y="586" type="line"/>
      <point x="98" y="544" type="line"/>
      <point x="145" y="490" type="line"/>
      <point x="92" y="438"/>
      <point x="68" y="364"/>
      <point x="68" y="296" type="curve" smooth="yes"/>
      <point x="68" y="254"/>
      <point x="78" y="214"/>
      <point x="102" y="182" type="curve"/>
      <point x="40" y="128" type="line"/>
      <point x="75" y="86" type="line"/>
      <point x="139" y="142" type="line"/>
      <point x="176" y="106"/>
      <point x="228" y="88"/>
      <point x="284" y="88" type="curve" smooth="yes"/>
      <point x="340" y="88"/>
      <point x="396" y="106"/>
      <point x="443" y="142" type="curve"/>
      <point x="491" y="86" type="line"/>
      <point x="539" y="128" type="line"/>
      <point x="492" y="182" type="line"/>
      <point x="544" y="233"/>
      <point x="569" y="305"/>
      <point x="569" y="373" type="curve" smooth="yes"/>
      <point x="569" y="416"/>
      <point x="559" y="457"/>
      <point x="535" y="490" type="curve"/>
      <point x="598" y="544" type="line"/>
    </contour>
    <contour>
      <point x="445" y="535"/>
      <point x="520" y="460"/>
      <point x="520" y="363" type="curve" smooth="yes"/>
      <point x="520" y="241"/>
      <point x="406" y="136"/>
      <point x="290" y="136" type="curve" smooth="yes"/>
      <point x="191" y="136"/>
      <point x="117" y="211"/>
      <point x="117" y="308" type="curve" smooth="yes"/>
      <point x="117" y="430"/>
      <point x="228" y="535"/>
      <point x="346" y="535" type="curve" smooth="yes"/>
    </contour>
  </outline>
</glyph>
<glyph name="ordfeminine" format="1">
  <advance width="419"/>
  <unicode hex="00AA"/>
  <outline>
    <contour>
      <point x="282" y="412" type="line"/>
      <point x="282" y="390"/>
      <point x="291" y="370"/>
      <point x="320" y="370" type="curve" smooth="yes"/>
      <point x="335" y="370"/>
      <point x="348" y="375"/>
      <point x="360" y="383" type="curve"/>
      <point x="364" y="414" type="line"/>
      <point x="352" y="408"/>
      <point x="337" y="402"/>
      <point x="330" y="402" type="curve" smooth="yes"/>
      <point x="323" y="402"/>
      <point x="318" y="406"/>
      <point x="318" y="416" type="curve" smooth="yes"/>
      <point x="318" y="425"/>
      <point x="355" y="693"/>
      <point x="355" y="693" type="curve" smooth="yes"/>
      <point x="331" y="693" type="line"/>
      <point x="327" y="680"/>
      <point x="322" y="665"/>
      <point x="318" y="651" type="curve"/>
      <point x="316" y="648" type="line"/>
      <point x="300" y="680"/>
      <point x="269" y="699"/>
      <point x="224" y="699" type="curve" smooth="yes"/>
      <point x="116" y="699"/>
      <point x="72" y="590"/>
      <point x="72" y="495" type="curve" smooth="yes"/>
      <point x="72" y="408"/>
      <point x="118" y="370"/>
      <point x="178" y="370" type="curve" smooth="yes"/>
      <point x="221" y="370"/>
      <point x="254" y="384"/>
      <point x="281" y="415" type="curve"/>
    </contour>
    <contour>
      <point x="140" y="402"/>
      <point x="107" y="427"/>
      <point x="107" y="496" type="curve" smooth="yes"/>
      <point x="107" y="571"/>
      <point x="136" y="667"/>
      <point x="223" y="667" type="curve" smooth="yes"/>
      <point x="268" y="667"/>
      <point x="302" y="639"/>
      <point x="302" y="575" type="curve" smooth="yes"/>
      <point x="302" y="494"/>
      <point x="272" y="402"/>
      <point x="185" y="402" type="curve" smooth="yes"/>
    </contour>
  </outline>
</glyph>
<glyph name="registered" format="1">
  <advance width="785"/>
  <unicode hex="00AE"/>
  <outline>
    <contour>
      <point x="572" y="151" type="line"/>
      <point x="541" y="163"/>
      <point x="541" y="185"/>
      <point x="541" y="229" type="curve" smooth="yes"/>
      <point x="541" y="311"/>
      <point x="504" y="335"/>
      <point x="485" y="343" type="curve"/>
      <point x="485" y="347" type="line"/>
      <point x="516" y="360"/>
      <point x="548" y="395"/>
      <point x="548" y="443" type="curve" smooth="yes"/>
      <point x="548" y="506"/>
      <point x="493" y="547"/>
      <point x="433" y="547" type="curve" smooth="yes"/>
      <point x="264" y="547" type="line"/>
      <point x="264" y="135" type="line"/>
      <point x="305" y="135" type="line"/>
      <point x="305" y="328" type="line"/>
      <point x="430" y="328" type="line" smooth="yes"/>
      <point x="449" y="328"/>
      <point x="503" y="320"/>
      <point x="503" y="215" type="curve" smooth="yes"/>
      <point x="503" y="145"/>
      <point x="532" y="134"/>
      <point x="553" y="134" type="curve" smooth="yes"/>
      <point x="561" y="134"/>
      <point x="572" y="137"/>
      <point x="572" y="137" type="curve"/>
    </contour>
    <contour>
      <point x="305" y="363" type="line"/>
      <point x="305" y="511" type="line"/>
      <point x="435" y="511" type="line" smooth="yes"/>
      <point x="477" y="511"/>
      <point x="511" y="480"/>
      <point x="511" y="438" type="curve" smooth="yes"/>
      <point x="511" y="397"/>
      <point x="477" y="363"/>
      <point x="435" y="363" type="curve" smooth="yes"/>
    </contour>
    <contour>
      <point x="754" y="539"/>
      <point x="595" y="696"/>
      <point x="400" y="696" type="curve" smooth="yes"/>
      <point x="204" y="696"/>
      <point x="46" y="539"/>
      <point x="46" y="344" type="curve" smooth="yes"/>
      <point x="46" y="147"/>
      <point x="204" y="-10"/>
      <point x="400" y="-10" type="curve" smooth="yes"/>
      <point x="595" y="-10"/>
      <point x="754" y="147"/>
      <point x="754" y="344" type="curve" smooth="yes"/>
    </contour>
    <contour>
      <point x="728" y="162"/>
      <point x="580" y="16"/>
      <point x="400" y="16" type="curve" smooth="yes"/>
      <point x="219" y="16"/>
      <point x="72" y="162"/>
      <point x="72" y="344" type="curve" smooth="yes"/>
      <point x="72" y="524"/>
      <point x="219" y="670"/>
      <point x="400" y="670" type="curve" smooth="yes"/>
      <point x="580" y="670"/>
      <point x="728" y="524"/>
      <point x="728" y="344" type="curve" smooth="yes"/>
    </contour>
  </outline>
</glyph>
<glyph name="twosuperior" format="1">
  <advance width="334"/>
  <unicode hex="00B2"/>
  <outline>
    <contour>
      <point x="13" y="422" type="line"/>
      <point x="267" y="422" type="line"/>
      <point x="272" y="460" type="line"/>
      <point x="64" y="460" type="line"/>
      <point x="65" y="470"/>
      <point x="73" y="484"/>
      <point x="96" y="498" type="curve" smooth="yes"/>
      <point x="219" y="573" type="line" smooth="yes"/>
      <point x="257" y="596"/>
      <point x="303" y="635"/>
      <point x="303" y="705" type="curve" smooth="yes"/>
      <point x="303" y="762"/>
      <point x="265" y="805"/>
      <point x="196" y="805" type="curve" smooth="yes"/>
      <point x="114" y="805"/>
      <point x="52" y="738"/>
      <point x="52" y="664" type="curve"/>
      <point x="93" y="664" type="line"/>
      <point x="93" y="721"/>
      <point x="134" y="767"/>
      <point x="191" y="767" type="curve" smooth="yes"/>
      <point x="238" y="767"/>
      <point x="262" y="739"/>
      <point x="262" y="699" type="curve" smooth="yes"/>
      <point x="262" y="653"/>
      <point x="231" y="624"/>
      <point x="205" y="608" type="curve" smooth="yes"/>
      <point x="88" y="537" type="line" smooth="yes"/>
      <point x="49" y="513"/>
      <point x="20" y="486"/>
      <point x="15" y="441" type="curve" smooth="yes"/>
    </contour>
  </outline>
</glyph>
<glyph name="onesuperior" format="1">
  <advance width="301"/>
  <unicode hex="00B9"/>
  <outline>
    <contour>
      <point x="234" y="422" type="line"/>
      <point x="239" y="460" type="line"/>
      <point x="162" y="460" type="line"/>
      <point x="210" y="797" type="line"/>
      <point x="188" y="797" type="line"/>
      <point x="132" y="780"/>
      <point x="105" y="776"/>
      <point x="63" y="774" type="curve"/>
      <point x="59" y="745" type="line"/>
      <point x="161" y="745" type="line"/>
      <point x="120" y="460" type="line"/>
      <point x="18" y="460" type="line"/>
      <point x="13" y="422" type="line"/>
    </contour>
  </outline>
</glyph>
<glyph name="guillemotright" format="1">
  <advance width="460"/>
  <unicode hex="00BB"/>
  <outline>
    <contour>
      <point x="78" y="163" type="line"/>
      <point x="227" y="337" type="line"/>
      <point x="127" y="511" type="line"/>
      <point x="86" y="511" type="line"/>
      <point x="159" y="337" type="line"/>
      <point x="37" y="163" type="line"/>
    </contour>
    <contour>
      <point x="261" y="163" type="line"/>
      <point x="409" y="337" type="line"/>
      <point x="310" y="511" type="line"/>
      <point x="269" y="511" type="line"/>
      <point x="342" y="337" type="line"/>
      <point x="220" y="163" type="line"/>
    </contour>
  </outline>
</glyph>
<glyph name="onequarter" format="1">
  <advance width="701"/>
  <unicode hex="00BC"/>
  <outline>
    <contour>
      <point x="259" y="311" type="line"/>
      <point x="264" y="349" type="line"/>
      <point x="187" y="349" type="line"/>
      <point x="235" y="686" type="line"/>
      <point x="213" y="686" type="line"/>
      <point x="157" y="669"/>
      <point x="130" y="665"/>
      <point x="87" y="663" type="curve"/>
      <point x="83" y="634" type="line"/>
      <point x="185" y="634" type="line"/>
      <point x="145" y="349" type="line"/>
      <point x="43" y="349" type="line"/>
      <point x="38" y="311" type="line"/>
    </contour>
    <contour>
      <point x="646" y="686" type="line"/>
      <point x="602" y="686" type="line"/>
      <point x="85" y="0" type="line"/>
      <point x="132" y="0" type="line"/>
    </contour>
    <contour>
      <point x="585" y="135" type="line"/>
      <point x="453" y="135" type="line"/>
      <point x="494" y="181"/>
      <point x="565" y="290"/>
      <point x="606" y="375" type="curve"/>
      <point x="563" y="375" type="line"/>
      <point x="519" y="287"/>
      <point x="428" y="157"/>
      <point x="404" y="132" type="curve"/>
      <point x="399" y="98" type="line"/>
      <point x="580" y="98" type="line"/>
      <point x="566" y="0" type="line"/>
      <point x="607" y="0" type="line"/>
      <point x="621" y="98" type="line"/>
      <point x="664" y="98" type="line"/>
      <point x="669" y="135" type="line"/>
      <point x="626" y="135" type="line"/>
      <point x="651" y="311" type="line"/>
      <point x="631" y="311" type="line"/>
      <point x="623" y="295"/>
      <point x="613" y="279"/>
      <point x="604" y="265" type="curve"/>
    </contour>
  </outline>
</glyph>
<glyph name="threequarters" format="1">
  <advance width="698"/>
  <unicode hex="00BE"/>
  <outline>
    <contour>
      <point x="688" y="686" type="line"/>
      <point x="644" y="686" type="line"/>
      <point x="128" y="0" type="line"/>
      <point x="175" y="0" type="line"/>
    </contour>
    <contour>
      <point x="613" y="135" type="line"/>
      <point x="481" y="135" type="line"/>
      <point x="521" y="181"/>
      <point x="593" y="290"/>
      <point x="634" y="375" type="curve"/>
      <point x="591" y="375" type="line"/>
      <point x="546" y="287"/>
      <point x="456" y="157"/>
      <point x="431" y="132" type="curve"/>
      <point x="427" y="98" type="line"/>
      <point x="608" y="98" type="line"/>
      <point x="594" y="0" type="line"/>
      <point x="635" y="0" type="line"/>
      <point x="649" y="98" type="line"/>
      <point x="692" y="98" type="line"/>
      <point x="697" y="135" type="line"/>
      <point x="654" y="135" type="line"/>
      <point x="679" y="311" type="line"/>
      <point x="659" y="311" type="line"/>
      <point x="650" y="295"/>
      <point x="640" y="279"/>
      <point x="631" y="265" type="curve"/>
    </contour>
    <contour>
      <point x="57" y="427" type="line"/>
      <point x="53" y="410"/>
      <point x="53" y="401"/>
      <point x="53" y="396" type="curve" smooth="yes"/>
      <point x="53" y="339"/>
      <point x="102" y="304"/>
      <point x="175" y="304" type="curve" smooth="yes"/>
      <point x="255" y="304"/>
      <point x="311" y="351"/>
      <point x="311" y="429" type="curve" smooth="yes"/>
      <point x="311" y="467"/>
      <point x="292" y="492"/>
      <point x="264" y="505" type="curve"/>
      <point x="301" y="524"/>
      <point x="329" y="546"/>
      <point x="329" y="604" type="curve" smooth="yes"/>
      <point x="329" y="662"/>
      <point x="282" y="692"/>
      <point x="222" y="692" type="curve" smooth="yes"/>
      <point x="154" y="692"/>
      <point x="97" y="654"/>
      <point x="87" y="587" type="curve" smooth="yes"/>
      <point x="85" y="574" type="line"/>
      <point x="125" y="574" type="line"/>
      <point x="127" y="587" type="line" smooth="yes"/>
      <point x="133" y="630"/>
      <point x="170" y="655"/>
      <point x="217" y="655" type="curve" smooth="yes"/>
      <point x="257" y="655"/>
      <point x="288" y="636"/>
      <point x="288" y="598" type="curve" smooth="yes"/>
      <point x="288" y="545"/>
      <point x="243" y="521"/>
      <point x="195" y="521" type="curve" smooth="yes"/>
      <point x="151" y="521" type="line"/>
      <point x="146" y="484" type="line"/>
      <point x="193" y="484" type="line" smooth="yes"/>
      <point x="237" y="484"/>
      <point x="271" y="465"/>
      <point x="271" y="423" type="curve" smooth="yes"/>
      <point x="271" y="369"/>
      <point x="231" y="340"/>
      <point x="180" y="340" type="curve" smooth="yes"/>
      <point x="118" y="340"/>
      <point x="93" y="363"/>
      <point x="93" y="401" type="curve" smooth="yes"/>
      <point x="93" y="406"/>
      <point x="94" y="414"/>
      <point x="97" y="427" type="curve"/>
    </contour>
  </outline>
</glyph>
<glyph name="questiondown" format="1">
  <advance width="494"/>
  <unicode hex="00BF"/>
  <outline>
    <contour>
      <point x="304" y="511" type="line"/>
      <point x="239" y="511" type="line"/>
      <point x="230" y="442" type="line"/>
      <point x="295" y="442" type="line"/>
    </contour>
    <contour>
      <point x="212" y="280" type="line" smooth="yes"/>
      <point x="196" y="165"/>
      <point x="13" y="160"/>
      <point x="13" y="-28" type="curve" smooth="yes"/>
      <point x="13" y="-79"/>
      <point x="30" y="-186"/>
      <point x="182" y="-186" type="curve" smooth="yes"/>
      <point x="377" y="-186"/>
      <point x="410" y="-18"/>
      <point x="414" y="13" type="curve"/>
      <point x="415" y="19"/>
      <point x="416" y="35"/>
      <point x="416" y="46" type="curve"/>
      <point x="362" y="46" type="line" smooth="yes"/>
      <point x="362" y="46"/>
      <point x="362" y="27"/>
      <point x="361" y="17" type="curve"/>
      <point x="356" y="-18"/>
      <point x="326" y="-137"/>
      <point x="187" y="-137" type="curve" smooth="yes"/>
      <point x="85" y="-137"/>
      <point x="67" y="-69"/>
      <point x="67" y="-23" type="curve" smooth="yes"/>
      <point x="67" y="138"/>
      <point x="247" y="142"/>
      <point x="264" y="267" type="curve" smooth="yes"/>
      <point x="275" y="345" type="line"/>
      <point x="221" y="345" type="line"/>
    </contour>
  </outline>
</glyph>
<glyph name="Agrave" format="1">
  <advance width="650"/>
  <unicode hex="00C0"/>
  <outline>
    <contour>
      <point x="522" y="0" type="line"/>
      <point x="581" y="0" type="line"/>
      <point x="394" y="686" type="line"/>
      <point x="344" y="686" type="line"/>
      <point x="-36" y="0" type="line"/>
      <point x="19" y="0" type="line"/>
      <point x="113" y="170" type="line"/>
      <point x="475" y="170" type="line"/>
    </contour>
    <contour>
      <point x="354" y="612" type="line"/>
      <point x="358" y="612" type="line"/>
      <point x="462" y="219" type="line"/>
      <point x="140" y="219" type="line"/>
    </contour>
    <contour>
      <point x="390" y="750" type="line"/>
      <point x="315" y="895" type="line"/>
      <point x="250" y="895" type="line"/>
      <point x="249" y="892" type="line"/>
      <point x="340" y="750" type="line"/>
    </contour>
  </outline>
</glyph>
<glyph name="Aacute" format="1">
  <advance width="650"/>
  <unicode hex="00C1"/>
  <outline>
    <contour>
      <point x="522" y="0" type="line"/>
      <point x="581" y="0" type="line"/>
      <point x="394" y="686" type="line"/>
      <point x="344" y="686" type="line"/>
      <point x="-36" y="0" type="line"/>
      <point x="19" y="0" type="line"/>
      <point x="113" y="170" type="line"/>
      <point x="475" y="170" type="line"/>
    </contour>
    <contour>
      <point x="354" y="612" type="line"/>
      <point x="358" y="612" type="line"/>
      <point x="462" y="219" type="line"/>
      <point x="140" y="219" type="line"/>
    </contour>
    <contour>
      <point x="396" y="750" type="line"/>
      <point x="527" y="892" type="line"/>
      <point x="528" y="895" type="line"/>
      <point x="463" y="895" type="line"/>
      <point x="346" y="750" type="line"/>
    </contour>
  </outline>
</glyph>
<glyph name="Atilde" format="1">
  <advance width="650"/>
  <unicode hex="00C3"/>
  <outline>
    <contour>
      <point x="522" y="0" type="line"/>
      <point x="581" y="0" type="line"/>
      <point x="394" y="686" type="line"/>
      <point x="344" y="686" type="line"/>
      <point x="-36" y="0" type="line"/>
      <point x="19" y="0" type="line"/>
      <point x="113" y="170" type="line"/>
      <point x="475" y="170" type="line"/>
    </contour>
    <contour>
      <point x="354" y="612" type="line"/>
      <point x="358" y="612" type="line"/>
      <point x="462" y="219" type="line"/>
      <point x="140" y="219" type="line"/>
    </contour>
    <contour>
      <point x="530" y="832" type="line"/>
      <point x="520" y="809"/>
      <point x="502" y="800"/>
      <point x="469" y="800" type="curve" smooth="yes"/>
      <point x="415" y="800"/>
      <point x="370" y="832"/>
      <point x="306" y="832" type="curve" smooth="yes"/>
      <point x="228" y="832"/>
      <point x="198" y="782"/>
      <point x="194" y="750" type="curve"/>
      <point x="231" y="750" type="line"/>
      <point x="241" y="773"/>
      <point x="259" y="782"/>
      <point x="292" y="782" type="curve" smooth="yes"/>
      <point x="346" y="782"/>
      <point x="391" y="750"/>
      <point x="455" y="750" type="curve" smooth="yes"/>
      <point x="534" y="750"/>
      <point x="563" y="800"/>
      <point x="567" y="832" type="curve"/>
    </contour>
  </outline>
</glyph>
<glyph name="Adieresis" format="1">
  <advance width="650"/>
  <unicode hex="00C4"/>
  <outline>
    <contour>
      <point x="522" y="0" type="line"/>
      <point x="581" y="0" type="line"/>
      <point x="394" y="686" type="line"/>
      <point x="344" y="686" type="line"/>
      <point x="-36" y="0" type="line"/>
      <point x="19" y="0" type="line"/>
      <point x="113" y="170" type="line"/>
      <point x="475" y="170" type="line"/>
    </contour>
    <contour>
      <point x="354" y="612" type="line"/>
      <point x="358" y="612" type="line"/>
      <point x="462" y="219" type="line"/>
      <point x="140" y="219" type="line"/>
    </contour>
    <contour>
      <point x="252" y="750" type="line"/>
      <point x="317" y="750" type="line"/>
      <point x="326" y="819" type="line"/>
      <point x="261" y="819" type="line"/>
    </contour>
    <contour>
      <point x="428" y="750" type="line"/>
      <point x="493" y="750" type="line"/>
      <point x="502" y="819" type="line"/>
      <point x="437" y="819" type="line"/>
    </contour>
  </outline>
</glyph>
<glyph name="AE" format="1">
  <advance width="981"/>
  <unicode hex="00C6"/>
  <outline>
    <contour>
      <point x="873" y="0" type="line"/>
      <point x="864" y="48" type="line"/>
      <point x="568" y="48" type="line"/>
      <point x="492" y="326" type="line"/>
      <point x="812" y="326" type="line"/>
      <point x="812" y="374" type="line"/>
      <point x="479" y="374" type="line"/>
      <point x="407" y="638" type="line"/>
      <point x="851" y="638" type="line"/>
      <point x="863" y="686" type="line"/>
      <point x="348" y="686" type="line"/>
      <point x="-33" y="0" type="line"/>
      <point x="29" y="0" type="line"/>
      <point x="123" y="170" type="line"/>
      <point x="477" y="170" type="line"/>
      <point x="524" y="0" type="line"/>
    </contour>
    <contour>
      <point x="358" y="607" type="line"/>
      <point x="361" y="608" type="line"/>
      <point x="464" y="219" type="line"/>
      <point x="150" y="219" type="line"/>
    </contour>
    <contour>
      <point x="442" y="686" type="move" name="top"/>
    </contour>
  </outline>
</glyph>
<glyph name="Egrave" format="1">
  <advance width="592"/>
  <unicode hex="00C8"/>
  <outline>
    <contour>
      <point x="481" y="0" type="line"/>
      <point x="481" y="48" type="line"/>
      <point x="112" y="48" type="line"/>
      <point x="151" y="326" type="line"/>
      <point x="470" y="326" type="line"/>
      <point x="477" y="374" type="line"/>
      <point x="158" y="374" type="line"/>
      <point x="195" y="638" type="line"/>
      <point x="559" y="638" type="line"/>
      <point x="572" y="686" type="line"/>
      <point x="148" y="686" type="line"/>
      <point x="51" y="0" type="line"/>
    </contour>
    <contour>
      <point x="391" y="750" type="line"/>
      <point x="316" y="895" type="line"/>
      <point x="251" y="895" type="line"/>
      <point x="250" y="892" type="line"/>
      <point x="341" y="750" type="line"/>
    </contour>
  </outline>
</glyph>
<glyph name="Ecircumflex" format="1">
  <advance width="592"/>
  <unicode hex="00CA"/>
  <outline>
    <contour>
      <point x="481" y="0" type="line"/>
      <point x="481" y="48" type="line"/>
      <point x="112" y="48" type="line"/>
      <point x="151" y="326" type="line"/>
      <point x="470" y="326" type="line"/>
      <point x="477" y="374" type="line"/>
      <point x="158" y="374" type="line"/>
      <point x="195" y="638" type="line"/>
      <point x="559" y="638" type="line"/>
      <point x="572" y="686" type="line"/>
      <point x="148" y="686" type="line"/>
      <point x="51" y="0" type="line"/>
    </contour>
    <contour>
      <point x="199" y="750" type="line"/>
      <point x="259" y="750" type="line"/>
      <point x="376" y="847" type="line"/>
      <point x="465" y="750" type="line"/>
      <point x="525" y="750" type="line"/>
      <point x="412" y="895" type="line"/>
      <point x="354" y="895" type="line"/>
    </contour>
  </outline>
</glyph>
<glyph name="Iacute" format="1">
  <advance width="365"/>
  <unicode hex="00CD"/>
  <outline>
    <contour>
      <point x="102" y="637" type="line"/>
      <point x="181" y="637" type="line"/>
      <point x="98" y="49" type="line"/>
      <point x="19" y="49" type="line"/>
      <point x="12" y="0" type="line"/>
      <point x="224" y="0" type="line"/>
      <point x="231" y="49" type="line"/>
      <point x="152" y="49" type="line"/>
      <point x="235" y="637" type="line"/>
      <point x="314" y="637" type="line"/>
      <point x="321" y="686" type="line"/>
      <point x="109" y="686" type="line"/>
    </contour>
    <contour>
      <point x="244" y="750" type="line"/>
      <point x="375" y="892" type="line"/>
      <point x="376" y="895" type="line"/>
      <point x="311" y="895" type="line"/>
      <point x="194" y="750" type="line"/>
    </contour>
  </outline>
</glyph>
<glyph name="Icircumflex" format="1">
  <advance width="365"/>
  <unicode hex="00CE"/>
  <outline>
    <contour>
      <point x="102" y="637" type="line"/>
      <point x="181" y="637" type="line"/>
      <point x="98" y="49" type="line"/>
      <point x="19" y="49" type="line"/>
      <point x="12" y="0" type="line"/>
      <point x="224" y="0" type="line"/>
      <point x="231" y="49" type="line"/>
      <point x="152" y="49" type="line"/>
      <point x="235" y="637" type="line"/>
      <point x="314" y="637" type="line"/>
      <point x="321" y="686" type="line"/>
      <point x="109" y="686" type="line"/>
    </contour>
    <contour>
      <point x="61" y="750" type="line"/>
      <point x="121" y="750" type="line"/>
      <point x="238" y="847" type="line"/>
      <point x="327" y="750" type="line"/>
      <point x="387" y="750" type="line"/>
      <point x="274" y="895" type="line"/>
      <point x="216" y="895" type="line"/>
    </contour>
  </outline>
</glyph>
<glyph name="Otilde" format="1">
  <advance width="690"/>
  <unicode hex="00D5"/>
  <outline>
    <contour>
      <point x="430" y="-10"/>
      <point x="562" y="54"/>
      <point x="597" y="330" type="curve" smooth="yes"/>
      <point x="605" y="394"/>
      <point x="608" y="428"/>
      <point x="608" y="458" type="curve" smooth="yes"/>
      <point x="608" y="648"/>
      <point x="509" y="696"/>
      <point x="382" y="696" type="curve" smooth="yes"/>
      <point x="235" y="696"/>
      <point x="104" y="631"/>
      <point x="68" y="356" type="curve" smooth="yes"/>
      <point x="59" y="291"/>
      <point x="57" y="258"/>
      <point x="57" y="228" type="curve" smooth="yes"/>
      <point x="57" y="38"/>
      <point x="156" y="-10"/>
      <point x="283" y="-10" type="curve" smooth="yes"/>
    </contour>
    <contour>
      <point x="189" y="38"/>
      <point x="110" y="77"/>
      <point x="110" y="232" type="curve" smooth="yes"/>
      <point x="110" y="257"/>
      <point x="111" y="286"/>
      <point x="123" y="368" type="curve" smooth="yes"/>
      <point x="156" y="595"/>
      <point x="258" y="648"/>
      <point x="375" y="648" type="curve" smooth="yes"/>
      <point x="475" y="648"/>
      <point x="555" y="609"/>
      <point x="555" y="454" type="curve" smooth="yes"/>
      <point x="555" y="428"/>
      <point x="553" y="400"/>
      <point x="542" y="318" type="curve" smooth="yes"/>
      <point x="511" y="91"/>
      <point x="407" y="38"/>
      <point x="290" y="38" type="curve" smooth="yes"/>
    </contour>
    <contour>
      <point x="558" y="833" type="line"/>
      <point x="548" y="810"/>
      <point x="530" y="801"/>
      <point x="497" y="801" type="curve" smooth="yes"/>
      <point x="443" y="801"/>
      <point x="398" y="833"/>
      <point x="334" y="833" type="curve" smooth="yes"/>
      <point x="256" y="833"/>
      <point x="226" y="783"/>
      <point x="222" y="751" type="curve"/>
      <point x="259" y="751" type="line"/>
      <point x="269" y="774"/>
      <point x="287" y="783"/>
      <point x="320" y="783" type="curve" smooth="yes"/>
      <point x="374" y="783"/>
      <point x="419" y="751"/>
      <point x="483" y="751" type="curve" smooth="yes"/>
      <point x="562" y="751"/>
      <point x="591" y="801"/>
      <point x="595" y="833" type="curve"/>
    </contour>
  </outline>
</glyph>
<glyph name="Ucircumflex" format="1">
  <advance width="682"/>
  <unicode hex="00DB"/>
  <outline>
    <contour>
      <point x="565" y="686" type="line"/>
      <point x="500" y="222" type="line" smooth="yes"/>
      <point x="485" y="114"/>
      <point x="408" y="38"/>
      <point x="289" y="38" type="curve" smooth="yes"/>
      <point x="184" y="38"/>
      <point x="128" y="96"/>
      <point x="128" y="187" type="curve" smooth="yes"/>
      <point x="128" y="214"/>
      <point x="129" y="210"/>
      <point x="196" y="686" type="curve"/>
      <point x="142" y="686" type="line" smooth="yes"/>
      <point x="142" y="686"/>
      <point x="74" y="233"/>
      <point x="74" y="180" type="curve" smooth="yes"/>
      <point x="74" y="64"/>
      <point x="153" y="-10"/>
      <point x="283" y="-10" type="curve" smooth="yes"/>
      <point x="427" y="-10"/>
      <point x="534" y="81"/>
      <point x="554" y="220" type="curve"/>
      <point x="554" y="221"/>
      <point x="619" y="686"/>
      <point x="619" y="686" type="curve" smooth="yes"/>
    </contour>
    <contour>
      <point x="221" y="750" type="line"/>
      <point x="281" y="750" type="line"/>
      <point x="398" y="847" type="line"/>
      <point x="487" y="750" type="line"/>
      <point x="547" y="750" type="line"/>
      <point x="434" y="895" type="line"/>
      <point x="376" y="895" type="line"/>
    </contour>
  </outline>
</glyph>
<glyph name="Thorn" format="1">
  <advance width="633"/>
  <unicode hex="00DE"/>
  <outline>
    <contour>
      <point x="105" y="0" type="line"/>
      <point x="130" y="177" type="line"/>
      <point x="357" y="177" type="line" smooth="yes"/>
      <point x="469" y="177"/>
      <point x="572" y="276"/>
      <point x="572" y="391" type="curve" smooth="yes"/>
      <point x="572" y="481"/>
      <point x="504" y="551"/>
      <point x="410" y="551" type="curve" smooth="yes"/>
      <point x="183" y="551" type="line"/>
      <point x="202" y="686" type="line"/>
      <point x="148" y="686" type="line"/>
      <point x="51" y="0" type="line"/>
    </contour>
    <contour>
      <point x="137" y="224" type="line"/>
      <point x="176" y="503" type="line"/>
      <point x="396" y="503" type="line" smooth="yes"/>
      <point x="467" y="503"/>
      <point x="519" y="452"/>
      <point x="519" y="384" type="curve" smooth="yes"/>
      <point x="519" y="297"/>
      <point x="441" y="224"/>
      <point x="357" y="224" type="curve" smooth="yes"/>
    </contour>
  </outline>
</glyph>
<glyph name="germandbls" format="1">
  <advance width="614"/>
  <unicode hex="00DF"/>
  <outline>
    <contour>
      <point x="423" y="388" type="line"/>
      <point x="493" y="414"/>
      <point x="548" y="495"/>
      <point x="548" y="571" type="curve" smooth="yes"/>
      <point x="548" y="660"/>
      <point x="481" y="728"/>
      <point x="378" y="728" type="curve" smooth="yes"/>
      <point x="252" y="728"/>
      <point x="153" y="643"/>
      <point x="135" y="511" type="curve"/>
      <point x="79" y="511" type="line"/>
      <point x="72" y="465" type="line"/>
      <point x="128" y="465" type="line"/>
      <point x="54" y="-66" type="line"/>
      <point x="105" y="-66" type="line"/>
      <point x="186" y="514" type="line" smooth="yes"/>
      <point x="200" y="614"/>
      <point x="272" y="682"/>
      <point x="372" y="682" type="curve" smooth="yes"/>
      <point x="450" y="682"/>
      <point x="496" y="631"/>
      <point x="496" y="565" type="curve" smooth="yes"/>
      <point x="496" y="479"/>
      <point x="417" y="407"/>
      <point x="323" y="407" type="curve" smooth="yes"/>
      <point x="242" y="407" type="line"/>
      <point x="236" y="361" type="line"/>
      <point x="328" y="361" type="line" smooth="yes"/>
      <point x="411" y="361"/>
      <point x="471" y="301"/>
      <point x="471" y="224" type="curve" smooth="yes"/>
      <point x="471" y="127"/>
      <point x="380" y="46"/>
      <point x="283" y="46" type="curve" smooth="yes"/>
      <point x="191" y="46" type="line"/>
      <point x="185" y="0" type="line"/>
      <point x="277" y="0" type="line" smooth="yes"/>
      <point x="404" y="0"/>
      <point x="523" y="104"/>
      <point x="523" y="229" type="curve" smooth="yes"/>
      <point x="523" y="299"/>
      <point x="484" y="361"/>
      <point x="424" y="385" type="curve"/>
    </contour>
  </outline>
</glyph>
<glyph name="adieresis" format="1">
  <advance width="607"/>
  <unicode hex="00E4"/>
  <outline>
    <contour>
      <point x="386" y="21"/>
      <point x="400" y="-10"/>
      <point x="444" y="-10" type="curve" smooth="yes"/>
      <point x="467" y="-10"/>
      <point x="488" y="-3"/>
      <point x="507" y="9" type="curve"/>
      <point x="513" y="52" type="line"/>
      <point x="496" y="43"/>
      <point x="475" y="36"/>
      <point x="460" y="36" type="curve" smooth="yes"/>
      <point x="447" y="36"/>
      <point x="437" y="43"/>
      <point x="437" y="61" type="curve" smooth="yes"/>
      <point x="437" y="73"/>
      <point x="499" y="511"/>
      <point x="499" y="511" type="curve" smooth="yes"/>
      <point x="466" y="511" type="line"/>
      <point x="442" y="440" type="line"/>
      <point x="438" y="440" type="line"/>
      <point x="412" y="490"/>
      <point x="359" y="521"/>
      <point x="287" y="521" type="curve" smooth="yes"/>
      <point x="112" y="521"/>
      <point x="42" y="344"/>
      <point x="42" y="190" type="curve" smooth="yes"/>
      <point x="42" y="50"/>
      <point x="115" y="-10"/>
      <point x="212" y="-10" type="curve" smooth="yes"/>
      <point x="284" y="-10"/>
      <point x="342" y="15"/>
      <point x="387" y="69" type="curve"/>
      <point x="386" y="64"/>
      <point x="386" y="60"/>
      <point x="386" y="55" type="curve" smooth="yes"/>
    </contour>
    <contour>
      <point x="149" y="36"/>
      <point x="93" y="77"/>
      <point x="93" y="193" type="curve" smooth="yes"/>
      <point x="93" y="316"/>
      <point x="142" y="475"/>
      <point x="285" y="475" type="curve" smooth="yes"/>
      <point x="361" y="475"/>
      <point x="418" y="428"/>
      <point x="418" y="321" type="curve" smooth="yes"/>
      <point x="418" y="187"/>
      <point x="368" y="36"/>
      <point x="224" y="36" type="curve" smooth="yes"/>
    </contour>
    <contour>
      <point x="208" y="651" type="line"/>
      <point x="273" y="651" type="line"/>
      <point x="282" y="720" type="line"/>
      <point x="217" y="720" type="line"/>
    </contour>
    <contour>
      <point x="384" y="651" type="line"/>
      <point x="449" y="651" type="line"/>
      <point x="458" y="720" type="line"/>
      <point x="393" y="720" type="line"/>
    </contour>
  </outline>
</glyph>
<glyph name="igrave" format="1">
  <advance width="261"/>
  <unicode hex="00EC"/>
  <outline>
    <contour>
      <point x="161" y="0" type="line"/>
      <point x="232" y="511" type="line"/>
      <point x="181" y="511" type="line"/>
      <point x="110" y="0" type="line"/>
    </contour>
    <contour>
      <point x="235" y="575" type="line"/>
      <point x="160" y="720" type="line"/>
      <point x="95" y="720" type="line"/>
      <point x="94" y="717" type="line"/>
      <point x="185" y="575" type="line"/>
    </contour>
  </outline>
</glyph>
<glyph name="icircumflex" format="1">
  <advance width="261"/>
  <unicode hex="00EE"/>
  <outline>
    <contour>
      <point x="165" y="0" type="line"/>
      <point x="236" y="511" type="line"/>
      <point x="185" y="511" type="line"/>
      <point x="114" y="0" type="line"/>
    </contour>
    <contour>
      <point x="53" y="575" type="line"/>
      <point x="113" y="575" type="line"/>
      <point x="230" y="672" type="line"/>
      <point x="319" y="575" type="line"/>
      <point x="379" y="575" type="line"/>
      <point x="266" y="720" type="line"/>
      <point x="208" y="720" type="line"/>
    </contour>
  </outline>
</glyph>
<glyph name="idieresis" format="1">
  <advance width="261"/>
  <unicode hex="00EF"/>
  <outline>
    <contour>
      <point x="167" y="0" type="line"/>
      <point x="238" y="511" type="line"/>
      <point x="187" y="511" type="line"/>
      <point x="116" y="0" type="line"/>
    </contour>
    <contour>
      <point x="103" y="651" type="line"/>
      <point x="168" y="651" type="line"/>
      <point x="177" y="720" type="line"/>
      <point x="112" y="720" type="line"/>
    </contour>
    <contour>
      <point x="279" y="651" type="line"/>
      <point x="344" y="651" type="line"/>
      <point x="353" y="720" type="line"/>
      <point x="288" y="720" type="line"/>
    </contour>
  </outline>
</glyph>
<glyph name="ntilde" format="1">
  <advance width="593"/>
  <unicode hex="00F1"/>
  <outline>
    <contour>
      <point x="444" y="0" type="line"/>
      <point x="492" y="343"/>
      <point x="493" y="345"/>
      <point x="493" y="368" type="curve" smooth="yes"/>
      <point x="493" y="473"/>
      <point x="423" y="521"/>
      <point x="328" y="521" type="curve" smooth="yes"/>
      <point x="261" y="521"/>
      <point x="191" y="489"/>
      <point x="148" y="435" type="curve"/>
      <point x="148" y="511" type="line"/>
      <point x="114" y="511" type="line"/>
      <point x="42" y="0" type="line"/>
      <point x="93" y="0" type="line"/>
      <point x="137" y="314" type="line" smooth="yes"/>
      <point x="150" y="406"/>
      <point x="227" y="475"/>
      <point x="317" y="475" type="curve" smooth="yes"/>
      <point x="395" y="475"/>
      <point x="441" y="437"/>
      <point x="441" y="354" type="curve" smooth="yes"/>
      <point x="441" y="342"/>
      <point x="440" y="328"/>
      <point x="394" y="0" type="curve"/>
    </contour>
    <contour>
      <point x="488" y="719" type="line"/>
      <point x="478" y="696"/>
      <point x="460" y="687"/>
      <point x="427" y="687" type="curve" smooth="yes"/>
      <point x="373" y="687"/>
      <point x="328" y="719"/>
      <point x="264" y="719" type="curve" smooth="yes"/>
      <point x="186" y="719"/>
      <point x="156" y="669"/>
      <point x="152" y="637" type="curve"/>
      <point x="189" y="637" type="line"/>
      <point x="199" y="660"/>
      <point x="217" y="669"/>
      <point x="250" y="669" type="curve" smooth="yes"/>
      <point x="304" y="669"/>
      <point x="349" y="637"/>
      <point x="413" y="637" type="curve" smooth="yes"/>
      <point x="492" y="637"/>
      <point x="521" y="687"/>
      <point x="525" y="719" type="curve"/>
    </contour>
  </outline>
</glyph>
<glyph name="ograve" format="1">
  <advance width="576"/>
  <unicode hex="00F2"/>
  <outline>
    <contour>
      <point x="404" y="-10"/>
      <point x="484" y="159"/>
      <point x="484" y="319" type="curve" smooth="yes"/>
      <point x="484" y="449"/>
      <point x="411" y="521"/>
      <point x="300" y="521" type="curve" smooth="yes"/>
      <point x="121" y="521"/>
      <point x="41" y="352"/>
      <point x="41" y="192" type="curve" smooth="yes"/>
      <point x="41" y="62"/>
      <point x="114" y="-10"/>
      <point x="225" y="-10" type="curve" smooth="yes"/>
    </contour>
    <contour>
      <point x="151" y="36"/>
      <point x="92" y="87"/>
      <point x="92" y="193" type="curve" smooth="yes"/>
      <point x="92" y="324"/>
      <point x="148" y="475"/>
      <point x="293" y="475" type="curve" smooth="yes"/>
      <point x="373" y="475"/>
      <point x="433" y="424"/>
      <point x="433" y="317" type="curve" smooth="yes"/>
      <point x="433" y="183"/>
      <point x="376" y="36"/>
      <point x="232" y="36" type="curve" smooth="yes"/>
    </contour>
    <contour>
      <point x="340" y="575" type="line"/>
      <point x="265" y="720" type="line"/>
      <point x="200" y="720" type="line"/>
      <point x="199" y="717" type="line"/>
      <point x="290" y="575" type="line"/>
    </contour>
  </outline>
</glyph>
<glyph name="thorn" format="1">
  <advance width="582"/>
  <unicode hex="00FE"/>
  <outline>
    <contour>
      <point x="17" y="-181" type="line"/>
      <point x="68" y="-181" type="line"/>
      <point x="104" y="71" type="line"/>
      <point x="130" y="21"/>
      <point x="183" y="-10"/>
      <point x="255" y="-10" type="curve" smooth="yes"/>
      <point x="430" y="-10"/>
      <point x="500" y="167"/>
      <point x="500" y="321" type="curve" smooth="yes"/>
      <point x="500" y="461"/>
      <point x="427" y="521"/>
      <point x="330" y="521" type="curve" smooth="yes"/>
      <point x="258" y="521"/>
      <point x="200" y="495"/>
      <point x="155" y="441" type="curve"/>
      <point x="194" y="720" type="line"/>
      <point x="144" y="720" type="line"/>
    </contour>
    <contour>
      <point x="392" y="475"/>
      <point x="449" y="434"/>
      <point x="449" y="319" type="curve" smooth="yes"/>
      <point x="449" y="188"/>
      <point x="399" y="36"/>
      <point x="257" y="36" type="curve" smooth="yes"/>
      <point x="181" y="36"/>
      <point x="123" y="83"/>
      <point x="123" y="190" type="curve" smooth="yes"/>
      <point x="123" y="316"/>
      <point x="174" y="475"/>
      <point x="318" y="475" type="curve" smooth="yes"/>
    </contour>
  </outline>
</glyph>
<glyph name="ydieresis" format="1">
  <advance width="510"/>
  <unicode hex="00FF"/>
  <outline>
    <contour>
      <point x="500" y="511" type="line"/>
      <point x="450" y="511" type="line"/>
      <point x="214" y="76" type="line"/>
      <point x="210" y="76" type="line"/>
      <point x="97" y="511" type="line"/>
      <point x="42" y="511" type="line"/>
      <point x="175" y="8" type="line"/>
      <point x="144" y="-48" type="line" smooth="yes"/>
      <point x="122" y="-88"/>
      <point x="94" y="-140"/>
      <point x="40" y="-140" type="curve" smooth="yes"/>
      <point x="22" y="-140"/>
      <point x="1" y="-132"/>
      <point x="-12" y="-126" type="curve"/>
      <point x="-19" y="-172" type="line"/>
      <point x="2" y="-182"/>
      <point x="21" y="-186"/>
      <point x="43" y="-186" type="curve" smooth="yes"/>
      <point x="134" y="-186"/>
      <point x="170" y="-94"/>
      <point x="228" y="13" type="curve" smooth="yes"/>
    </contour>
    <contour>
      <point x="163" y="651" type="line"/>
      <point x="228" y="651" type="line"/>
      <point x="237" y="720" type="line"/>
      <point x="172" y="720" type="line"/>
    </contour>
    <contour>
      <point x="339" y="651" type="line"/>
      <point x="404" y="651" type="line"/>
      <point x="413" y="720" type="line"/>
      <point x="348" y="720" type="line"/>
    </contour>
  </outline>
</glyph>
<glyph name="Lslash" format="1">
  <advance width="534"/>
  <unicode hex="0141"/>
  <outline>
    <contour>
      <point x="339" y="479" type="line"/>
      <point x="176" y="402" type="line"/>
      <point x="216" y="686" type="line"/>
      <point x="162" y="686" type="line"/>
      <point x="118" y="375" type="line"/>
      <point x="39" y="338" type="line"/>
      <point x="33" y="294" type="line"/>
      <point x="112" y="331" type="line"/>
      <point x="65" y="0" type="line"/>
      <point x="471" y="0" type="line"/>
      <point x="466" y="48" type="line"/>
      <point x="126" y="48" type="line"/>
      <point x="170" y="358" type="line"/>
      <point x="332" y="435" type="line"/>
    </contour>
  </outline>
</glyph>
<glyph name="lslash" format="1">
  <advance width="297"/>
  <unicode hex="0142"/>
  <outline>
    <contour>
      <point x="121" y="0" type="line"/>
      <point x="172" y="363" type="line"/>
      <point x="273" y="411" type="line"/>
      <point x="279" y="455" type="line"/>
      <point x="178" y="407" type="line"/>
      <point x="222" y="720" type="line"/>
      <point x="171" y="720" type="line"/>
      <point x="124" y="382" type="line"/>
      <point x="23" y="335" type="line"/>
      <point x="18" y="291" type="line"/>
      <point x="117" y="338" type="line"/>
      <point x="70" y="0" type="line"/>
    </contour>
  </outline>
</glyph>
<glyph name="Scaron" format="1">
  <advance width="629"/>
  <unicode hex="0160"/>
  <outline>
    <contour>
      <point x="554" y="503" type="line"/>
      <point x="558" y="527"/>
      <point x="558" y="537"/>
      <point x="558" y="546" type="curve" smooth="yes"/>
      <point x="558" y="654"/>
      <point x="469" y="696"/>
      <point x="354" y="696" type="curve" smooth="yes"/>
      <point x="224" y="696"/>
      <point x="102" y="638"/>
      <point x="102" y="500" type="curve" smooth="yes"/>
      <point x="102" y="293"/>
      <point x="477" y="381"/>
      <point x="477" y="205" type="curve" smooth="yes"/>
      <point x="477" y="76"/>
      <point x="369" y="38"/>
      <point x="262" y="38" type="curve" smooth="yes"/>
      <point x="163" y="38"/>
      <point x="86" y="69"/>
      <point x="86" y="155" type="curve" smooth="yes"/>
      <point x="86" y="169"/>
      <point x="90" y="197"/>
      <point x="93" y="205" type="curve"/>
      <point x="42" y="205" type="line"/>
      <point x="39" y="195"/>
      <point x="36" y="167"/>
      <point x="36" y="151" type="curve" smooth="yes"/>
      <point x="36" y="31"/>
      <point x="135" y="-10"/>
      <point x="259" y="-10" type="curve" smooth="yes"/>
      <point x="393" y="-10"/>
      <point x="532" y="49"/>
      <point x="532" y="217" type="curve" smooth="yes"/>
      <point x="532" y="431"/>
      <point x="155" y="345"/>
      <point x="155" y="508" type="curve" smooth="yes"/>
      <point x="155" y="611"/>
      <point x="249" y="648"/>
      <point x="348" y="648" type="curve" smooth="yes"/>
      <point x="438" y="648"/>
      <point x="508" y="613"/>
      <point x="508" y="542" type="curve" smooth="yes"/>
      <point x="508" y="537"/>
      <point x="508" y="531"/>
      <point x="504" y="503" type="curve"/>
    </contour>
    <contour>
      <point x="328" y="750" type="line"/>
      <point x="386" y="750" type="line"/>
      <point x="541" y="895" type="line"/>
      <point x="481" y="895" type="line"/>
      <point x="364" y="798" type="line"/>
      <point x="275" y="895" type="line"/>
      <point x="215" y="895" type="line"/>
    </contour>
  </outline>
</glyph>
<glyph name="zcaron" format="1">
  <advance width="463"/>
  <unicode hex="017E"/>
  <outline>
    <contour>
      <point x="356" y="0" type="line"/>
      <point x="362" y="46" type="line"/>
      <point x="76" y="46" type="line"/>
      <point x="416" y="487" type="line"/>
      <point x="419" y="511" type="line"/>
      <point x="84" y="511" type="line"/>
      <point x="78" y="465" type="line"/>
      <point x="338" y="465" type="line"/>
      <point x="-1" y="24" type="line"/>
      <point x="-4" y="0" type="line"/>
    </contour>
    <contour>
      <point x="225" y="575" type="line"/>
      <point x="283" y="575" type="line"/>
      <point x="438" y="720" type="line"/>
      <point x="378" y="720" type="line"/>
      <point x="261" y="623" type="line"/>
      <point x="172" y="720" type="line"/>
      <point x="112" y="720" type="line"/>
    </contour>
  </outline>
</glyph>
<glyph name="florin" format="1">
  <advance width="340"/>
  <unicode hex="0192"/>
  <outline>
    <contour>
      <point x="332" y="711" type="line"/>
      <point x="317" y="721"/>
      <point x="292" y="728"/>
      <point x="267" y="728" type="curve" smooth="yes"/>
      <point x="208" y="728"/>
      <point x="160" y="694"/>
      <point x="149" y="617" type="curve" smooth="yes"/>
      <point x="134" y="511" type="line"/>
      <point x="78" y="511" type="line"/>
      <point x="72" y="465" type="line"/>
      <point x="128" y="465" type="line"/>
      <point x="52" y="-71" type="line" smooth="yes"/>
      <point x="44" y="-130"/>
      <point x="15" y="-138"/>
      <point x="-14" y="-138" type="curve" smooth="yes"/>
      <point x="-29" y="-138"/>
      <point x="-59" y="-129"/>
      <point x="-74" y="-122" type="curve"/>
      <point x="-80" y="-167" type="line"/>
      <point x="-65" y="-177"/>
      <point x="-40" y="-184"/>
      <point x="-15" y="-184" type="curve" smooth="yes"/>
      <point x="44" y="-184"/>
      <point x="92" y="-150"/>
      <point x="103" y="-73" type="curve" smooth="yes"/>
      <point x="179" y="465" type="line"/>
      <point x="298" y="465" type="line"/>
      <point x="304" y="511" type="line"/>
      <point x="185" y="511" type="line"/>
      <point x="200" y="615" type="line" smooth="yes"/>
      <point x="208" y="674"/>
      <point x="237" y="682"/>
      <point x="266" y="682" type="curve" smooth="yes"/>
      <point x="281" y="682"/>
      <point x="311" y="673"/>
      <point x="326" y="666" type="curve"/>
    </contour>
  </outline>
</glyph>
<glyph name="circumflex" format="1">
  <advance width="536"/>
  <unicode hex="02C6"/>
  <outline>
    <contour>
      <point x="80" y="575" type="line"/>
      <point x="140" y="575" type="line"/>
      <point x="257" y="672" type="line"/>
      <point x="346" y="575" type="line"/>
      <point x="406" y="575" type="line"/>
      <point x="293" y="720" type="line"/>
      <point x="235" y="720" type="line"/>
    </contour>
    <contour>
      <point x="224" y="511" type="move" name="_top"/>
    </contour>
  </outline>
</glyph>
<glyph name="caron" format="1">
  <advance width="536"/>
  <unicode hex="02C7"/>
  <outline>
    <contour>
      <point x="214" y="575" type="line"/>
      <point x="272" y="575" type="line"/>
      <point x="427" y="720" type="line"/>
      <point x="367" y="720" type="line"/>
      <point x="250" y="623" type="line"/>
      <point x="161" y="720" type="line"/>
      <point x="101" y="720" type="line"/>
    </contour>
    <contour>
      <point x="245" y="511" type="move" name="_top"/>
    </contour>
  </outline>
</glyph>
<glyph name="ogonek" format="1">
  <advance width="340"/>
  <unicode hex="02DB"/>
  <outline>
    <contour>
      <point x="240" y="-86" type="line"/>
      <point x="218" y="-93"/>
      <point x="195" y="-100"/>
      <point x="171" y="-100" type="curve" smooth="yes"/>
      <point x="152" y="-100"/>
      <point x="132" y="-93"/>
      <point x="132" y="-67" type="curve" smooth="yes"/>
      <point x="132" y="-36"/>
      <point x="161" y="-17"/>
      <point x="185" y="-2" type="curve"/>
      <point x="189" y="0" type="line"/>
      <point x="139" y="0" type="line"/>
      <point x="107" y="-19"/>
      <point x="74" y="-44"/>
      <point x="74" y="-83" type="curve" smooth="yes"/>
      <point x="74" y="-129"/>
      <point x="118" y="-143"/>
      <point x="161" y="-143" type="curve" smooth="yes"/>
      <point x="190" y="-143"/>
      <point x="221" y="-135"/>
      <point x="249" y="-119" type="curve"/>
    </contour>
    <contour>
      <point x="192" y="10" type="move" name="_ogonek"/>
    </contour>
  </outline>
</glyph>
<glyph name="uni0326" format="1">
  <advance width="237"/>
  <unicode hex="0326"/>
  <outline>
    <contour>
      <point x="36" y="-250" type="line"/>
      <point x="82" y="-138" type="line"/>
      <point x="90" y="-80" type="line"/>
      <point x="25" y="-80" type="line"/>
      <point x="16" y="-149" type="line"/>
      <point x="40" y="-149" type="line"/>
      <point x="40" y="-149"/>
      <point x="3" y="-250"/>
      <point x="2" y="-250" type="curve"/>
    </contour>
    <contour>
      <point x="71" y="0" type="move" name="_bottom"/>
    </contour>
  </outline>
</glyph>
<glyph name="Delta" format="1">
  <advance width="675"/>
  <unicode hex="0394"/>
  <outline>
    <contour>
      <point x="18" y="0" type="line"/>
      <point x="585" y="0" type="line"/>
      <point x="592" y="48" type="line"/>
      <point x="442" y="686" type="line"/>
      <point x="354" y="686" type="line"/>
      <point x="25" y="48" type="line"/>
    </contour>
    <contour>
      <point x="391" y="639" type="line"/>
      <point x="528" y="55" type="line"/>
      <point x="90" y="55" type="line"/>
    </contour>
  </outline>
</glyph>
<glyph name="mu" format="1">
  <advance width="598"/>
  <unicode hex="03BC"/>
  <outline>
    <contour>
      <point x="192" y="36"/>
      <point x="145" y="76"/>
      <point x="145" y="156" type="curve" smooth="yes"/>
      <point x="145" y="166"/>
      <point x="145" y="177"/>
      <point x="193" y="511" type="curve"/>
      <point x="142" y="511" type="line"/>
      <point x="47" y="-161" type="line"/>
      <point x="98" y="-161" type="line"/>
      <point x="121" y="1" type="line" smooth="yes"/>
      <point x="122" y="10"/>
      <point x="123" y="20"/>
      <point x="123" y="29" type="curve" smooth="yes"/>
      <point x="123" y="41"/>
      <point x="122" y="51"/>
      <point x="122" y="51" type="curve"/>
      <point x="148" y="9"/>
      <point x="203" y="-10"/>
      <point x="258" y="-10" type="curve" smooth="yes"/>
      <point x="325" y="-10"/>
      <point x="390" y="22"/>
      <point x="433" y="76" type="curve"/>
      <point x="432" y="69"/>
      <point x="431" y="61"/>
      <point x="431" y="54" type="curve" smooth="yes"/>
      <point x="431" y="21"/>
      <point x="444" y="-10"/>
      <point x="484" y="-10" type="curve" smooth="yes"/>
      <point x="508" y="-10"/>
      <point x="531" y="-3"/>
      <point x="551" y="9" type="curve"/>
      <point x="557" y="52" type="line"/>
      <point x="541" y="43"/>
      <point x="520" y="36"/>
      <point x="505" y="36" type="curve" smooth="yes"/>
      <point x="492" y="36"/>
      <point x="482" y="43"/>
      <point x="482" y="60" type="curve" smooth="yes"/>
      <point x="482" y="62"/>
      <point x="482" y="66"/>
      <point x="545" y="511" type="curve"/>
      <point x="494" y="511" type="line"/>
      <point x="450" y="197" type="line" smooth="yes"/>
      <point x="437" y="105"/>
      <point x="360" y="36"/>
      <point x="270" y="36" type="curve" smooth="yes"/>
    </contour>
  </outline>
</glyph>
<glyph name="quoteright" format="1">
  <advance width="218"/>
  <unicode hex="2019"/>
  <outline>
    <contour>
      <point x="130" y="516" type="line"/>
      <point x="175" y="628" type="line"/>
      <point x="183" y="686" type="line"/>
      <point x="118" y="686" type="line"/>
      <point x="109" y="617" type="line"/>
      <point x="133" y="617" type="line"/>
      <point x="133" y="617"/>
      <point x="97" y="516"/>
      <point x="96" y="516" type="curve"/>
    </contour>
  </outline>
</glyph>
<glyph name="quotedblright" format="1">
  <advance width="360"/>
  <unicode hex="201D"/>
  <outline>
    <contour>
      <point x="130" y="516" type="line"/>
      <point x="175" y="628" type="line"/>
      <point x="183" y="686" type="line"/>
      <point x="118" y="686" type="line"/>
      <point x="109" y="617" type="line"/>
      <point x="133" y="617" type="line"/>
      <point x="133" y="617"/>
      <point x="97" y="516"/>
      <point x="96" y="516" type="curve"/>
    </contour>
    <contour>
      <point x="229" y="516" type="line"/>
      <point x="274" y="628" type="line"/>
      <point x="282" y="686" type="line"/>
      <point x="217" y="686" type="line"/>
      <point x="208" y="617" type="line"/>
      <point x="232" y="617" type="line"/>
      <point x="232" y="617"/>
      <point x="196" y="516"/>
      <point x="195" y="516" type="curve"/>
    </contour>
  </outline>
</glyph>
<glyph name="bullet" format="1">
  <advance width="600"/>
  <unicode hex="2022"/>
  <outline>
    <contour>
      <point x="449" y="432"/>
      <point x="397" y="485"/>
      <point x="325" y="485" type="curve" smooth="yes"/>
      <point x="227" y="485"/>
      <point x="164" y="411"/>
      <point x="164" y="324" type="curve" smooth="yes"/>
      <point x="164" y="256"/>
      <point x="216" y="203"/>
      <point x="286" y="203" type="curve" smooth="yes"/>
      <point x="388" y="203"/>
      <point x="449" y="282"/>
      <point x="449" y="362" type="curve" smooth="yes"/>
    </contour>
  </outline>
</glyph>
<glyph name="perthousand" format="1">
  <advance width="1034"/>
  <unicode hex="2030"/>
  <outline>
    <contour>
      <point x="651" y="686" type="line"/>
      <point x="592" y="686" type="line"/>
      <point x="78" y="0" type="line"/>
      <point x="138" y="0" type="line"/>
    </contour>
    <contour>
      <point x="663" y="229" type="line" smooth="yes"/>
      <point x="664" y="235"/>
      <point x="664" y="242"/>
      <point x="664" y="248" type="curve" smooth="yes"/>
      <point x="664" y="305"/>
      <point x="627" y="349"/>
      <point x="559" y="349" type="curve" smooth="yes"/>
      <point x="483" y="349"/>
      <point x="434" y="304"/>
      <point x="423" y="229" type="curve" smooth="yes"/>
      <point x="407" y="119" type="line" smooth="yes"/>
      <point x="406" y="112"/>
      <point x="406" y="106"/>
      <point x="406" y="100" type="curve" smooth="yes"/>
      <point x="406" y="43"/>
      <point x="442" y="-1"/>
      <point x="510" y="-1" type="curve" smooth="yes"/>
      <point x="585" y="-1"/>
      <point x="636" y="41"/>
      <point x="647" y="119" type="curve" smooth="yes"/>
    </contour>
    <contour>
      <point x="597" y="115" type="line" smooth="yes"/>
      <point x="592" y="76"/>
      <point x="562" y="45"/>
      <point x="517" y="45" type="curve" smooth="yes"/>
      <point x="478" y="45"/>
      <point x="456" y="70"/>
      <point x="456" y="103" type="curve" smooth="yes"/>
      <point x="456" y="107"/>
      <point x="456" y="111"/>
      <point x="457" y="115" type="curve"/>
      <point x="473" y="233" type="line" smooth="yes"/>
      <point x="478" y="272"/>
      <point x="509" y="303"/>
      <point x="553" y="303" type="curve" smooth="yes"/>
      <point x="594" y="303"/>
      <point x="614" y="279"/>
      <point x="614" y="246" type="curve" smooth="yes"/>
      <point x="614" y="242"/>
      <point x="614" y="237"/>
      <point x="613" y="233" type="curve"/>
    </contour>
    <contour>
      <point x="993" y="229" type="line" smooth="yes"/>
      <point x="994" y="235"/>
      <point x="994" y="242"/>
      <point x="994" y="248" type="curve" smooth="yes"/>
      <point x="994" y="305"/>
      <point x="957" y="349"/>
      <point x="889" y="349" type="curve" smooth="yes"/>
      <point x="813" y="349"/>
      <point x="764" y="304"/>
      <point x="753" y="229" type="curve" smooth="yes"/>
      <point x="737" y="119" type="line" smooth="yes"/>
      <point x="736" y="112"/>
      <point x="736" y="106"/>
      <point x="736" y="100" type="curve" smooth="yes"/>
      <point x="736" y="43"/>
      <point x="772" y="-1"/>
      <point x="840" y="-1" type="curve" smooth="yes"/>
      <point x="915" y="-1"/>
      <point x="966" y="41"/>
      <point x="977" y="119" type="curve" smooth="yes"/>
    </contour>
    <contour>
      <point x="927" y="115" type="line" smooth="yes"/>
      <point x="922" y="76"/>
      <point x="892" y="45"/>
      <point x="847" y="45" type="curve" smooth="yes"/>
      <point x="808" y="45"/>
      <point x="786" y="70"/>
      <point x="786" y="103" type="curve" smooth="yes"/>
      <point x="786" y="107"/>
      <point x="786" y="111"/>
      <point x="787" y="115" type="curve"/>
      <point x="803" y="233" type="line" smooth="yes"/>
      <point x="808" y="272"/>
      <point x="839" y="303"/>
      <point x="883" y="303" type="curve" smooth="yes"/>
      <point x="924" y="303"/>
      <point x="944" y="279"/>
      <point x="944" y="246" type="curve" smooth="yes"/>
      <point x="944" y="242"/>
      <point x="944" y="237"/>
      <point x="943" y="233" type="curve"/>
    </contour>
    <contour>
      <point x="319" y="567" type="line" smooth="yes"/>
      <point x="320" y="573"/>
      <point x="320" y="580"/>
      <point x="320" y="586" type="curve" smooth="yes"/>
      <point x="320" y="643"/>
      <point x="283" y="687"/>
      <point x="215" y="687" type="curve" smooth="yes"/>
      <point x="139" y="687"/>
      <point x="90" y="642"/>
      <point x="79" y="567" type="curve" smooth="yes"/>
      <point x="63" y="457" type="line" smooth="yes"/>
      <point x="62" y="450"/>
      <point x="62" y="444"/>
      <point x="62" y="438" type="curve" smooth="yes"/>
      <point x="62" y="381"/>
      <point x="98" y="337"/>
      <point x="166" y="337" type="curve" smooth="yes"/>
      <point x="241" y="337"/>
      <point x="292" y="379"/>
      <point x="303" y="457" type="curve" smooth="yes"/>
    </contour>
    <contour>
      <point x="253" y="453" type="line" smooth="yes"/>
      <point x="248" y="414"/>
      <point x="218" y="383"/>
      <point x="173" y="383" type="curve" smooth="yes"/>
      <point x="134" y="383"/>
      <point x="112" y="408"/>
      <point x="112" y="441" type="curve" smooth="yes"/>
      <point x="112" y="445"/>
      <point x="112" y="449"/>
      <point x="113" y="453" type="curve"/>
      <point x="129" y="571" type="line" smooth="yes"/>
      <point x="134" y="610"/>
      <point x="165" y="641"/>
      <point x="209" y="641" type="curve" smooth="yes"/>
      <point x="250" y="641"/>
      <point x="270" y="617"/>
      <point x="270" y="584" type="curve" smooth="yes"/>
      <point x="270" y="580"/>
      <point x="270" y="575"/>
      <point x="269" y="571" type="curve"/>
    </contour>
  </outline>
</glyph>
<glyph name="guilsinglright" format="1">
  <advance width="278"/>
  <unicode hex="203A"/>
  <outline>
    <contour>
      <point x="78" y="163" type="line"/>
      <point x="226" y="337" type="line"/>
      <point x="127" y="511" type="line"/>
      <point x="86" y="511" type="line"/>
      <point x="159" y="337" type="line"/>
      <point x="37" y="163" type="line"/>
    </contour>
  </outline>
</glyph>
<glyph name="Euro" format="1">
  <advance width="562"/>
  <unicode hex="20AC"/>
  <outline>
    <contour>
      <point x="42" y="385" type="line"/>
      <point x="137" y="385" type="line"/>
      <point x="128" y="356"/>
      <point x="127" y="322"/>
      <point x="125" y="295" type="curve"/>
      <point x="30" y="295" type="line"/>
      <point x="23" y="247" type="line"/>
      <point x="127" y="247" type="line"/>
      <point x="140" y="98"/>
      <point x="241" y="-10"/>
      <point x="412" y="-10" type="curve" smooth="yes"/>
      <point x="432" y="-10"/>
      <point x="450" y="-8"/>
      <point x="470" y="-5" type="curve"/>
      <point x="476" y="41" type="line"/>
      <point x="458" y="38"/>
      <point x="438" y="36"/>
      <point x="418" y="36" type="curve" smooth="yes"/>
      <point x="277" y="36"/>
      <point x="196" y="124"/>
      <point x="181" y="247" type="curve"/>
      <point x="404" y="247" type="line"/>
      <point x="411" y="295" type="line"/>
      <point x="179" y="295" type="line"/>
      <point x="179" y="323"/>
      <point x="183" y="356"/>
      <point x="191" y="385" type="curve"/>
      <point x="423" y="385" type="line"/>
      <point x="430" y="433" type="line"/>
      <point x="206" y="433" type="line"/>
      <point x="254" y="557"/>
      <point x="360" y="648"/>
      <point x="504" y="648" type="curve" smooth="yes"/>
      <point x="524" y="648"/>
      <point x="543" y="646"/>
      <point x="561" y="642" type="curve"/>
      <point x="568" y="692" type="line"/>
      <point x="550" y="695"/>
      <point x="531" y="696"/>
      <point x="511" y="696" type="curve" smooth="yes"/>
      <point x="339" y="696"/>
      <point x="205" y="584"/>
      <point x="151" y="433" type="curve"/>
      <point x="49" y="433" type="line"/>
    </contour>
  </outline>
</glyph>
<glyph name="trademark" format="1">
  <advance width="898"/>
  <unicode hex="2122"/>
  <outline>
    <contour>
      <point x="391" y="648" type="line"/>
      <point x="396" y="686" type="line"/>
      <point x="97" y="686" type="line"/>
      <point x="92" y="648" type="line"/>
      <point x="221" y="648" type="line"/>
      <point x="171" y="289" type="line"/>
      <point x="213" y="289" type="line"/>
      <point x="263" y="648" type="line"/>
    </contour>
    <contour>
      <point x="771" y="289" type="line"/>
      <point x="826" y="686" type="line"/>
      <point x="770" y="686" type="line"/>
      <point x="573" y="346" type="line"/>
      <point x="473" y="686" type="line"/>
      <point x="416" y="686" type="line"/>
      <point x="361" y="289" type="line"/>
      <point x="397" y="289" type="line"/>
      <point x="444" y="623" type="line"/>
      <point x="546" y="289" type="line"/>
      <point x="576" y="289" type="line"/>
      <point x="639" y="398"/>
      <point x="712" y="517"/>
      <point x="775" y="627" type="curve"/>
      <point x="730" y="289" type="line"/>
    </contour>
  </outline>
</glyph>
<glyph name="partialdiff" format="1">
  <advance width="568"/>
  <unicode hex="2202"/>
  <outline>
    <contour>
      <point x="245" y="648" type="line"/>
      <point x="325" y="648" type="line" smooth="yes"/>
      <point x="410" y="648"/>
      <point x="463" y="589"/>
      <point x="463" y="508" type="curve" smooth="yes"/>
      <point x="463" y="499"/>
      <point x="462" y="490"/>
      <point x="461" y="481" type="curve" smooth="yes"/>
      <point x="441" y="341" type="line"/>
      <point x="411" y="396"/>
      <point x="349" y="429"/>
      <point x="279" y="429" type="curve" smooth="yes"/>
      <point x="148" y="429"/>
      <point x="32" y="319"/>
      <point x="32" y="173" type="curve" smooth="yes"/>
      <point x="32" y="61"/>
      <point x="110" y="-10"/>
      <point x="225" y="-10" type="curve" smooth="yes"/>
      <point x="352" y="-10"/>
      <point x="458" y="77"/>
      <point x="477" y="211" type="curve" smooth="yes"/>
      <point x="514" y="475" type="line" smooth="yes"/>
      <point x="516" y="488"/>
      <point x="517" y="501"/>
      <point x="517" y="514" type="curve" smooth="yes"/>
      <point x="517" y="624"/>
      <point x="443" y="696"/>
      <point x="333" y="696" type="curve" smooth="yes"/>
      <point x="252" y="696" type="line"/>
    </contour>
    <contour>
      <point x="145" y="38"/>
      <point x="86" y="97"/>
      <point x="86" y="180" type="curve" smooth="yes"/>
      <point x="86" y="288"/>
      <point x="175" y="381"/>
      <point x="280" y="381" type="curve" smooth="yes"/>
      <point x="367" y="381"/>
      <point x="425" y="323"/>
      <point x="425" y="241" type="curve" smooth="yes"/>
      <point x="425" y="126"/>
      <point x="339" y="38"/>
      <point x="232" y="38" type="curve" smooth="yes"/>
    </contour>
  </outline>
</glyph>
<glyph name="integral" format="1">
  <advance width="266"/>
  <unicode hex="222B"/>
  <outline>
    <contour>
      <point x="110" y="486"/>
      <point x="49" y="-144"/>
      <point x="49" y="-144" type="curve"/>
      <point x="43" y="-191"/>
      <point x="-17" y="-212"/>
      <point x="-44" y="-212" type="curve"/>
      <point x="-50" y="-250" type="line"/>
      <point x="7" y="-250"/>
      <point x="83" y="-222"/>
      <point x="95" y="-138" type="curve" smooth="yes"/>
      <point x="116" y="14"/>
      <point x="176" y="646"/>
      <point x="176" y="646" type="curve"/>
      <point x="182" y="691"/>
      <point x="245" y="712"/>
      <point x="273" y="712" type="curve"/>
      <point x="279" y="750" type="line"/>
      <point x="221" y="750"/>
      <point x="142" y="719"/>
      <point x="131" y="638" type="curve" smooth="yes"/>
    </contour>
  </outline>
</glyph>
<glyph name="lozenge" format="1">
  <advance width="489"/>
  <unicode hex="25CA"/>
  <outline>
    <contour>
      <point x="237" y="0" type="line"/>
      <point x="448" y="343" type="line"/>
      <point x="334" y="686" type="line"/>
      <point x="246" y="686" type="line"/>
      <point x="36" y="343" type="line"/>
      <point x="149" y="0" type="line"/>
    </contour>
    <contour>
      <point x="283" y="639" type="line"/>
      <point x="386" y="343" type="line"/>
      <point x="200" y="47" type="line"/>
      <point x="98" y="343" type="line"/>
    </contour>
  </outline>
</glyph>
